<?xml version="1.0" standalone="no"?>
<!DOCTYPE svg PUBLIC "-//W3C//DTD SVG 20010904//EN"
 "http://www.w3.org/TR/2001/REC-SVG-20010904/DTD/svg10.dtd">
<svg version="1.0" xmlns="http://www.w3.org/2000/svg"
 width="40" height="40" viewBox="0 0 968.000000 757.000000"
 preserveAspectRatio="xMidYMid meet">

<g transform="translate(0.000000,757.000000) scale(0.100000,-0.100000)"
fill="#C93D38" stroke="none">
<path d="M5575 7458 c-3 -7 -4 -569 -3 -1248 l3 -1235 1895 0 1895 0 0 1245 0
1245 -1893 3 c-1509 2 -1894 0 -1897 -10z m1978 -98 c21 -23 27 -38 27 -72 -1
-66 -45 -108 -116 -108 -88 0 -133 94 -81 171 38 57 119 61 170 9z m1461 -266
c8 -20 8 -1728 0 -1748 -6 -15 -151 -16 -1550 -16 l-1544 0 0 890 0 890 1544
0 c1399 0 1544 -1 1550 -16z"/>
<path d="M7740 6949 c0 -6 -11 -25 -25 -43 -14 -18 -25 -38 -25 -44 0 -7 -4
-12 -8 -12 -5 0 -14 -16 -22 -35 -8 -19 -17 -35 -22 -35 -4 0 -8 -6 -8 -14 0
-8 -6 -21 -12 -28 -7 -7 -20 -26 -28 -43 -8 -16 -17 -32 -20 -35 -13 -13 -60
-91 -60 -100 0 -5 -3 -10 -8 -10 -4 0 -13 -15 -21 -32 -8 -18 -17 -35 -20 -38
-13 -10 -61 -90 -61 -100 0 -5 -4 -10 -10 -10 -5 0 -10 -4 -10 -10 0 -5 -16
-34 -35 -64 -19 -30 -35 -60 -35 -66 0 -5 -4 -10 -10 -10 -5 0 -10 -7 -10 -15
0 -8 -4 -15 -10 -15 -5 0 -10 -6 -10 -14 0 -8 -6 -21 -13 -28 -7 -7 -20 -28
-28 -45 -7 -18 -17 -33 -21 -33 -5 0 -8 -5 -8 -10 0 -12 -52 -94 -62 -98 -5
-2 -8 -12 -8 -23 0 -22 -6 -24 -25 -6 -7 6 -21 19 -31 28 -11 9 -46 48 -79 85
-114 130 -100 121 -185 112 -41 -4 -131 -12 -200 -18 -69 -5 -172 -15 -230
-20 -58 -6 -163 -14 -235 -18 -71 -4 -136 -11 -142 -15 -7 -5 -13 -19 -13 -32
0 -44 32 -54 215 -65 94 -6 195 -15 226 -20 30 -6 103 -10 162 -10 l106 0 68
-70 c37 -39 93 -97 123 -128 31 -32 69 -75 85 -97 17 -21 67 -76 111 -122 l81
-83 17 24 c9 14 16 30 16 36 0 5 5 10 10 10 6 0 10 9 10 20 0 11 5 20 10 20 6
0 10 7 10 15 0 8 4 15 8 15 5 0 17 18 28 40 10 22 22 40 27 40 4 0 7 7 7 15 0
8 5 15 10 15 6 0 10 5 10 10 0 6 16 36 35 66 19 30 35 57 35 59 0 6 52 88 61
95 3 3 12 20 20 38 8 17 17 32 21 32 5 0 8 5 8 12 0 6 11 26 25 44 14 18 25
37 25 43 0 6 3 11 8 11 4 0 13 15 21 33 8 17 17 34 20 37 13 10 61 90 61 100
0 5 5 10 10 10 6 0 10 5 10 10 0 6 12 29 27 51 l27 41 18 -24 c9 -13 18 -31
18 -40 0 -10 5 -18 10 -18 6 0 10 -9 10 -19 0 -11 4 -23 10 -26 5 -3 17 -23
26 -43 9 -20 37 -81 63 -134 l46 -97 160 5 c88 3 167 8 175 11 14 6 228 18
498 29 l122 5 0 55 c0 36 -4 54 -12 54 -7 0 -56 5 -108 11 -129 14 -332 29
-465 35 -111 5 -155 16 -155 41 0 7 -4 13 -10 13 -5 0 -10 9 -10 20 0 11 -4
20 -10 20 -5 0 -10 9 -10 20 0 11 -4 20 -10 20 -5 0 -10 6 -10 14 0 8 -6 21
-13 28 -7 7 -25 38 -40 68 -15 30 -41 79 -57 108 -17 29 -30 59 -30 67 0 7 -3
15 -7 17 -10 4 -41 54 -56 91 -6 15 -15 27 -19 27 -4 0 -8 9 -8 20 0 11 -4 20
-10 20 -5 0 -10 9 -10 20 0 11 -4 20 -10 20 -5 0 -10 6 -10 14 0 8 -6 21 -13
28 -7 7 -20 28 -28 46 -13 30 -49 46 -49 21z"/>
<path d="M4040 5646 c-66 -17 -115 -41 -162 -78 -55 -43 -285 -273 -323 -323
-16 -21 -36 -44 -42 -51 -7 -7 -13 -17 -13 -23 0 -6 -4 -11 -8 -11 -5 0 -15
-12 -23 -27 -8 -16 -17 -30 -20 -33 -3 -3 -44 -59 -90 -125 -46 -66 -87 -121
-91 -123 -5 -2 -8 -9 -8 -15 0 -7 -11 -24 -25 -39 -14 -15 -25 -32 -25 -38 0
-5 -4 -10 -8 -10 -5 0 -15 -12 -23 -27 -8 -16 -24 -39 -36 -53 -13 -14 -23
-30 -23 -37 0 -6 -4 -13 -8 -15 -5 -1 -46 -57 -92 -123 -46 -66 -87 -121 -92
-123 -4 -2 -8 -8 -8 -14 0 -12 -70 -111 -82 -116 -5 -2 -8 -10 -8 -18 0 -8 -4
-14 -8 -14 -4 0 -16 -15 -27 -32 -10 -18 -21 -35 -25 -38 -3 -3 -53 -72 -110
-155 -57 -82 -108 -151 -112 -153 -4 -2 -8 -8 -8 -13 0 -6 -5 -15 -10 -22 -43
-51 -60 -73 -72 -96 -7 -14 -17 -31 -23 -37 -5 -6 -31 -41 -57 -77 -45 -64
-49 -66 -80 -60 -18 3 -44 11 -58 18 -14 6 -47 18 -75 25 -27 7 -54 16 -60 20
-5 3 -30 12 -55 19 -25 8 -67 23 -95 35 -27 12 -70 28 -95 36 -25 7 -49 17
-54 22 -6 4 -18 8 -27 8 -10 0 -30 6 -46 14 -15 8 -55 25 -88 36 -68 25 -76
28 -163 64 -35 14 -68 26 -73 26 -5 0 -31 9 -57 21 -98 43 -113 49 -123 49 -5
0 -29 9 -51 20 -23 11 -50 20 -60 20 -10 0 -18 4 -18 8 0 5 -27 17 -60 27 -34
10 -63 22 -66 27 -3 4 -16 8 -30 8 -13 0 -24 5 -24 10 0 6 -10 10 -23 10 -13
0 -27 4 -33 9 -5 4 -34 16 -64 26 -30 9 -63 21 -72 26 -10 5 -28 9 -41 9 -13
0 -27 4 -32 9 -18 16 -261 66 -395 81 -41 5 -113 13 -159 19 -46 6 -88 8 -92
5 -13 -7 -11 -261 1 -269 6 -4 70 -13 143 -20 228 -24 318 -43 442 -90 33 -13
105 -39 160 -60 55 -20 123 -46 150 -57 28 -11 70 -26 95 -35 25 -8 59 -21 75
-28 45 -19 172 -70 240 -95 33 -12 74 -28 90 -35 17 -6 56 -22 88 -34 31 -11
83 -31 115 -42 31 -12 71 -27 87 -34 17 -7 46 -18 65 -25 48 -17 80 -30 112
-46 14 -8 33 -14 42 -14 9 0 16 -4 16 -10 0 -5 6 -10 13 -10 17 0 71 -48 86
-77 6 -12 11 -40 11 -63 0 -33 -6 -48 -32 -74 -18 -18 -43 -35 -55 -38 -22 -6
-357 1 -1033 22 -693 22 -843 25 -881 22 l-39 -4 0 -1144 0 -1144 1233 0 c677
0 1237 -4 1242 -8 6 -4 28 -29 50 -57 44 -55 195 -203 199 -195 1 3 10 -2 19
-10 32 -29 42 -36 75 -50 17 -8 32 -17 32 -20 0 -3 23 -14 50 -25 28 -11 50
-23 50 -26 0 -4 15 -11 33 -16 17 -4 -645 -10 -1473 -13 l-1505 -5 -3 -142 -3
-143 3971 0 3971 0 -3 143 -3 142 -2150 5 c-1305 3 -2138 9 -2120 14 17 5 32
12 35 15 3 3 33 19 68 35 34 16 62 32 62 35 0 4 14 12 32 20 29 13 59 35 94
68 7 7 15 13 19 13 8 0 106 101 130 134 11 16 26 34 33 41 6 8 12 18 12 24 0
16 44 19 485 30 447 11 480 14 590 67 61 28 128 88 150 133 39 78 51 143 74
413 5 53 12 101 16 107 3 6 7 53 7 104 0 97 -11 133 -63 198 -20 25 -20 30 -8
150 18 191 22 415 9 484 -28 144 -88 212 -265 299 -66 32 -129 62 -140 66 -11
4 -40 15 -65 25 -25 10 -54 21 -65 25 -11 4 -40 13 -65 20 -25 7 -56 16 -70
20 -14 5 -79 21 -145 35 -66 15 -130 31 -143 36 -13 5 -34 9 -47 9 -13 0 -34
4 -47 9 -13 5 -57 17 -98 26 -41 8 -93 20 -115 25 -22 5 -65 14 -95 20 -71 15
-160 43 -160 50 0 5 55 31 105 50 11 4 45 19 75 32 30 14 70 31 88 39 17 8 32
17 32 21 0 5 6 8 13 8 18 0 127 109 127 126 0 8 4 14 8 14 18 0 37 100 37 196
0 92 -13 161 -36 206 -5 10 -9 22 -9 28 0 6 -21 55 -46 108 -49 104 -54 114
-78 180 -30 80 -13 203 33 239 95 76 218 103 477 103 180 0 180 0 202 -25 21
-24 25 -25 160 -25 76 0 141 2 143 4 2 2 3 63 1 135 l-3 131 -149 0 c-140 0
-149 -1 -155 -20 -9 -27 -19 -28 -255 -33 -155 -3 -216 -8 -250 -21 -25 -8
-55 -16 -68 -16 -12 0 -30 -4 -40 -9 -9 -5 -44 -22 -76 -37 -77 -35 -186 -142
-186 -182 0 -10 -5 -23 -12 -30 -7 -7 -11 -52 -12 -119 l-1 -108 58 -117 c31
-65 57 -122 57 -128 0 -5 5 -10 10 -10 6 0 10 -7 10 -15 0 -8 4 -23 9 -33 37
-72 46 -111 46 -202 0 -91 -2 -99 -30 -136 -16 -21 -33 -41 -37 -42 -5 -2 -14
-9 -21 -16 -11 -11 -121 -66 -132 -66 -2 0 -34 -13 -70 -30 -36 -16 -69 -30
-73 -30 -10 0 -170 -81 -203 -103 -25 -16 -30 -16 -120 6 -52 13 -121 30 -154
37 -33 7 -81 19 -108 27 -26 8 -53 13 -60 10 -6 -2 -24 2 -38 9 -14 7 -50 16
-80 19 -30 4 -67 11 -84 17 -16 6 -48 14 -70 19 -104 21 -234 55 -241 62 -8 8
24 77 35 77 4 0 15 16 25 35 11 19 23 35 28 35 4 0 8 6 8 14 0 8 3 16 8 18 11
4 82 106 82 117 0 5 4 11 8 13 12 5 102 134 102 147 0 6 3 11 8 11 4 0 21 20
37 45 17 24 33 45 38 45 4 0 7 6 7 14 0 7 10 24 23 38 12 13 28 36 36 51 8 15
18 27 23 27 4 0 8 7 8 15 0 8 4 15 8 15 4 0 16 15 27 33 10 17 26 40 35 50 9
9 23 30 31 45 8 15 17 29 20 32 4 3 50 68 104 145 54 77 100 142 104 145 3 3
12 17 19 31 8 14 27 41 43 60 16 19 32 42 35 52 3 9 10 17 15 17 5 0 9 6 9 14
0 8 4 16 8 18 4 2 66 86 137 188 71 102 132 187 137 188 4 2 8 8 8 14 0 12 70
111 82 116 5 2 8 10 8 18 0 8 4 14 8 14 4 0 16 15 27 33 10 17 21 34 24 37 10
9 51 69 51 75 0 4 7 13 15 22 21 20 98 134 93 137 -5 4 -109 26 -116 25 -4 -1
-27 -7 -52 -13z m-562 -3581 c23 -4 45 -11 48 -16 3 -5 14 -9 24 -9 20 0 83
-30 88 -42 2 -5 12 -8 23 -8 10 0 19 -4 19 -8 0 -4 13 -16 30 -25 42 -25 163
-147 180 -182 8 -16 18 -32 21 -35 10 -8 47 -95 67 -160 17 -53 25 -227 13
-300 -17 -105 -23 -130 -32 -130 -5 0 -9 -8 -9 -18 0 -39 -166 -272 -194 -272
-6 0 -17 -8 -49 -36 -7 -5 -27 -17 -44 -25 -18 -7 -33 -17 -33 -21 0 -5 -8 -8
-18 -8 -10 0 -22 -4 -28 -9 -61 -56 -361 -71 -474 -24 -55 23 -125 57 -130 63
-3 4 -10 9 -16 11 -19 7 -86 62 -126 104 -65 68 -78 84 -78 95 0 5 -4 10 -10
10 -5 0 -10 9 -10 19 0 11 -3 21 -7 23 -12 5 -57 106 -69 153 -12 51 -16 317
-5 328 6 6 11 20 11 32 0 26 20 82 45 125 11 19 26 47 34 63 8 15 18 27 23 27
4 0 8 6 8 13 0 18 128 147 146 147 8 0 14 4 14 8 0 8 130 77 175 93 77 27 243
33 363 14z"/>
<path d="M5334 4776 c-3 -8 -4 -85 -2 -171 l3 -157 28 -24 28 -24 2079 0 2079
0 28 24 28 24 0 169 0 168 -2133 3 c-1828 2 -2133 0 -2138 -12z"/>
</g>
</svg>
