<?xml version="1.0" standalone="no"?>
<!DOCTYPE svg PUBLIC "-//W3C//DTD SVG 20010904//EN"
 "http://www.w3.org/TR/2001/REC-SVG-20010904/DTD/svg10.dtd">
<svg version="1.0" xmlns="http://www.w3.org/2000/svg"
 width="40" height="40" fill="#fff" viewBox="0 0 1280.000000 1136.000000"
 preserveAspectRatio="xMidYMid meet">
<metadata>
Created by potrace 1.15, written by Peter Selinger 2001-2017
</metadata>
<g transform="translate(0.000000,1136.000000) scale(0.100000,-0.100000)"
fill="#C93D38" stroke="none">
<path d="M3890 11355 c0 -4 654 -1086 2697 -4458 189 -312 346 -574 349 -582
5 -12 -4 -15 -42 -15 -74 0 -884 -60 -1499 -111 -1841 -151 -3249 -329 -4193
-530 -101 -21 -200 -46 -220 -56 -269 -124 -517 -499 -672 -1015 -77 -258 -97
-367 -226 -1237 l-88 -595 17 -80 c24 -116 67 -196 151 -281 78 -79 175 -134
274 -154 65 -14 1262 -16 1262 -2 0 5 5 55 10 112 55 550 265 1069 606 1499
104 132 364 385 499 486 315 236 636 391 1005 484 771 196 1586 57 2245 -382
178 -118 277 -200 430 -353 400 -400 659 -877 775 -1425 25 -122 35 -189 55
-372 l6 -58 2585 0 2584 0 0 2070 0 2070 -1865 0 c-1026 0 -1865 3 -1865 6 0
6 1313 2215 1448 2436 168 275 225 330 412 402 55 21 62 21 1113 24 l1057 3 0
414 0 415 -992 0 c-1027 0 -1189 -5 -1354 -41 -264 -57 -486 -178 -653 -355
-69 -74 -167 -231 -1031 -1643 -525 -858 -957 -1561 -960 -1561 -3 1 -669
1100 -1480 2443 l-1476 2442 -482 3 c-265 1 -482 0 -482 -3z"/>
<path d="M1641 10329 c-478 -1137 -798 -2023 -898 -2489 -27 -130 -23 -325 10
-452 83 -313 289 -562 579 -698 170 -79 364 -112 542 -92 142 17 232 43 361
107 421 206 652 661 566 1115 -88 462 -425 1387 -981 2698 -24 56 -47 102 -51
102 -3 0 -61 -131 -128 -291z"/>
<path d="M4320 4119 c-394 -40 -796 -207 -1103 -457 -94 -78 -267 -257 -339
-353 -357 -476 -492 -1076 -373 -1664 126 -623 546 -1163 1121 -1440 556 -269
1223 -271 1779 -6 642 305 1077 910 1165 1621 13 109 13 381 -1 490 -90 732
-556 1357 -1228 1648 -319 138 -681 195 -1021 161z m415 -1217 c358 -99 604
-383 644 -744 30 -267 -65 -527 -261 -714 -112 -108 -251 -183 -405 -220 -101
-25 -295 -23 -399 4 -303 78 -529 295 -625 602 -21 66 -24 94 -24 235 1 139 4
170 24 235 101 324 336 539 672 615 87 20 280 13 374 -13z"/>
</g>
</svg>
