<?xml version="1.0" standalone="no"?>
<!DOCTYPE svg PUBLIC "-//W3C//DTD SVG 20010904//EN"
 "http://www.w3.org/TR/2001/REC-SVG-20010904/DTD/svg10.dtd">
<svg version="1.0" xmlns="http://www.w3.org/2000/svg"
 width="150" height="150" viewBox="0 0 4096.000000 2716.000000"
 preserveAspectRatio="xMidYMid meet">

<g transform="translate(0.000000,2716.000000) scale(0.100000,-0.100000)"
fill="#fff" stroke="none">
<path d="M19370 27140 c-255 -7 -321 -13 -550 -45 -58 -9 -118 -17 -135 -20
-139 -19 -260 -47 -601 -140 -287 -77 -827 -307 -1052 -447 -34 -21 -77 -47
-95 -57 -17 -10 -104 -63 -192 -118 -88 -54 -218 -134 -290 -178 -172 -104
-401 -246 -497 -306 -42 -27 -80 -49 -83 -49 -4 0 -26 -13 -49 -30 -24 -16
-102 -65 -172 -108 -71 -43 -212 -129 -314 -192 -102 -62 -241 -148 -310 -190
-331 -203 -497 -305 -635 -390 -82 -51 -170 -105 -195 -120 -84 -51 -305 -186
-370 -227 -74 -46 -300 -185 -795 -488 -115 -70 -255 -156 -310 -190 -55 -34
-183 -112 -285 -174 -211 -130 -361 -222 -472 -292 -42 -27 -80 -49 -83 -49
-4 0 -25 -13 -48 -29 -23 -15 -94 -60 -157 -98 -63 -39 -167 -102 -230 -141
l-115 -70 -540 -7 c-297 -4 -569 -9 -605 -11 -36 -2 -103 -7 -150 -9 -47 -3
-107 -7 -135 -9 -27 -2 -93 -7 -145 -11 -142 -9 -459 -42 -690 -71 -113 -14
-225 -28 -250 -31 -49 -5 -86 -10 -140 -17 -19 -3 -60 -8 -90 -11 -70 -8 -461
-69 -645 -100 -77 -14 -165 -27 -195 -31 -30 -3 -185 -30 -345 -61 -159 -30
-306 -56 -325 -59 -47 -5 -46 -5 -349 -69 -146 -31 -276 -58 -290 -60 -42 -6
-242 -50 -426 -93 -93 -22 -188 -43 -210 -46 -70 -11 -256 -64 -386 -109 -347
-122 -970 -446 -1464 -760 -255 -163 -637 -439 -837 -605 l-78 -64 0 -868 0
-869 -48 -5 c-81 -10 -174 -35 -230 -64 -140 -70 -286 -238 -367 -420 -64
-147 -94 -251 -112 -402 -8 -62 -8 -305 0 -360 4 -25 9 -65 13 -90 11 -75 51
-204 98 -310 120 -272 328 -451 560 -482 l86 -12 0 -192 c0 -144 3 -195 12
-201 18 -10 910 -306 1327 -439 38 -12 278 -14 1528 -14 1409 0 1484 1 1479
18 -3 9 -7 28 -10 42 -3 14 -17 84 -31 155 -45 222 -56 332 -62 585 -6 296 9
462 67 750 103 505 315 967 631 1375 446 576 1082 1002 1774 1190 194 53 509
104 665 108 l85 2 3 -615 c1 -338 0 -625 -3 -638 -4 -18 -12 -23 -33 -21 -15
1 -43 -1 -62 -4 -19 -4 -55 -9 -80 -11 -317 -34 -714 -169 -1023 -348 -173
-101 -211 -127 -384 -268 -252 -203 -463 -448 -635 -735 -241 -402 -369 -822
-398 -1308 -14 -232 1 -413 65 -782 10 -57 58 -210 106 -343 227 -616 665
-1136 1241 -1471 115 -67 353 -179 446 -210 219 -74 459 -133 592 -146 36 -4
88 -9 115 -11 67 -7 457 -7 520 -1 28 3 77 8 110 12 211 22 546 116 776 218
615 275 1114 758 1410 1367 99 204 203 539 243 780 97 586 -12 1237 -296 1768
-384 721 -1038 1227 -1852 1432 -61 15 -142 31 -181 35 -38 3 -72 8 -76 11
-11 6 -108 15 -152 14 -71 -2 -67 -44 -67 646 l0 624 43 0 c49 0 308 -40 456
-70 149 -30 453 -132 621 -207 497 -224 950 -576 1271 -988 310 -397 514 -817
628 -1290 58 -245 71 -325 88 -545 7 -104 7 -388 0 -490 -4 -47 -9 -111 -11
-142 -8 -99 -61 -373 -92 -470 -5 -17 70 -18 1476 -18 l1480 0 -7 -27 c-5 -16
-8 -314 -8 -664 0 -681 -1 -673 50 -702 15 -9 336 -13 1250 -17 l1230 -5 3
-2982 2 -2983 -192 -2 -193 -3 -3 -3812 -2 -3813 -9485 0 -9485 0 0 -510 0
-510 20470 0 20470 0 0 510 0 510 -9235 0 -9235 0 0 3815 0 3815 -225 2 -225
3 0 2973 c0 1634 0 2977 0 2982 0 7 424 10 1250 10 1375 0 1292 -4 1325 60 14
26 15 111 13 690 l-3 660 843 0 c463 0 842 3 842 8 0 4 -11 60 -25 125 -130
614 -87 1223 131 1827 253 700 746 1308 1384 1709 212 132 588 306 770 355
264 71 441 112 490 114 8 1 33 3 55 6 22 2 79 8 128 12 l87 7 0 -606 c0 -356
-4 -608 -9 -611 -5 -4 -29 -8 -53 -11 -207 -22 -286 -39 -538 -117 -175 -54
-424 -162 -555 -242 -41 -25 -78 -46 -80 -46 -10 0 -220 -151 -302 -217 -123
-100 -309 -286 -405 -407 -296 -370 -487 -781 -582 -1257 -25 -122 -28 -150
-43 -339 -48 -602 135 -1266 490 -1780 304 -439 703 -771 1182 -985 170 -76
194 -84 365 -134 141 -40 305 -76 400 -86 30 -3 78 -9 105 -12 66 -8 495 -8
565 0 354 39 678 135 998 296 525 264 978 721 1243 1252 51 102 128 278 134
307 2 9 18 60 35 112 33 101 77 274 86 337 3 21 7 52 10 68 9 54 12 87 25 267
12 163 5 372 -17 553 -2 17 -6 53 -9 80 -9 81 -72 324 -120 463 -218 637 -667
1181 -1259 1527 -284 165 -716 316 -1001 350 -27 3 -72 8 -100 12 -27 3 -63 5
-80 4 -16 -1 -45 1 -62 4 l-33 6 0 611 0 611 103 -7 c56 -4 116 -9 132 -11 17
-2 55 -7 85 -10 140 -14 299 -50 535 -121 777 -234 1477 -788 1900 -1503 241
-408 413 -932 452 -1375 7 -80 10 -547 4 -616 -13 -151 -66 -458 -88 -515 -4
-13 226 -15 1868 -15 l1874 0 230 201 c127 110 258 225 292 255 l63 55 2 215
3 216 71 22 c170 54 319 150 451 290 135 144 224 311 280 526 35 133 43 348
18 487 -53 293 -203 559 -408 721 -115 91 -251 161 -374 192 l-43 11 0 1455 0
1454 -39 -20 c-22 -11 -70 -24 -108 -30 -47 -7 -4219 -10 -13493 -8 -12827 3
-13427 4 -13477 21 -55 19 -86 42 -80 61 1 6 25 22 52 36 l50 25 973 3 c812 2
972 5 972 16 0 8 19 51 41 97 37 73 59 101 173 214 100 100 182 168 351 291
270 197 83 80 1795 1125 96 58 245 149 330 201 85 52 475 290 865 528 391 238
769 469 840 513 72 44 202 123 290 177 88 54 260 159 383 234 243 148 307 183
512 273 388 172 800 298 1181 360 l164 27 1449 3 1448 4 -6 -288 c-4 -158 -15
-916 -26 -1683 -10 -767 -22 -1551 -25 -1742 l-5 -348 730 0 730 0 2 1998 3
1997 2289 3 2289 2 53 -24 c336 -154 1029 -944 1680 -1916 613 -914 1028
-1795 951 -2018 l-15 -42 3267 0 c2163 0 3281 -4 3311 -11 25 -5 57 -19 73
-30 25 -18 27 -18 27 -2 0 10 -16 45 -36 77 -116 193 -393 464 -874 857 -149
122 -539 417 -715 542 -106 75 -180 128 -310 220 -33 24 -130 90 -215 147 -85
58 -159 109 -165 113 -15 13 -433 287 -565 371 -403 256 -700 441 -795 496
-16 9 -120 71 -230 137 -210 125 -298 177 -535 313 -231 133 -352 201 -467
264 -60 32 -153 84 -208 114 -55 31 -131 72 -170 92 -38 20 -151 79 -250 132
-435 229 -1048 525 -1395 673 -612 261 -1075 402 -1290 394 -46 -2 -74 2 -97
14 -30 16 -327 17 -4620 15 -2523 -1 -4707 -5 -4853 -8z m-12466 -5213 c155
-41 257 -96 347 -186 119 -119 169 -243 169 -417 0 -293 -169 -636 -476 -971
-101 -110 -175 -169 -288 -229 -160 -85 -319 -128 -533 -145 -419 -33 -967 85
-1586 342 -166 68 -570 263 -690 332 l-59 34 129 95 c348 258 830 556 1191
737 490 246 879 375 1307 435 17 2 111 3 210 1 156 -2 193 -6 279 -28z m29605
-181 c101 -53 180 -240 228 -541 25 -156 25 -593 0 -750 -55 -347 -157 -555
-272 -555 -62 0 -118 54 -173 165 -94 190 -148 593 -123 930 19 278 57 461
124 600 67 139 140 190 216 151z m-6668 -4196 c56 -11 104 -22 107 -25 3 -2
-12 -51 -33 -107 -157 -430 -189 -514 -196 -522 -5 -6 -9 142 -9 332 0 294 2
342 15 342 8 0 60 -9 116 -20z m-19341 -330 l0 -341 -22 -8 c-15 -6 -27 -5
-35 2 -6 7 -48 95 -93 197 -46 102 -105 234 -131 294 -27 59 -49 110 -49 111
0 12 254 83 303 84 l27 1 0 -340z m510 324 c70 -16 71 -17 65 -43 -11 -43
-157 -435 -166 -445 -5 -6 -9 104 -9 247 0 295 -12 268 110 241z m18302 -325
c2 -182 0 -333 -3 -335 -4 -2 -23 33 -42 79 -20 45 -77 172 -127 282 -51 110
-94 208 -97 217 -4 13 13 22 89 46 109 35 125 39 155 41 l22 1 3 -331z
m-17829 125 c37 -24 67 -48 67 -53 0 -5 -80 -101 -177 -212 -98 -111 -196
-224 -218 -250 -22 -26 -46 -48 -54 -48 -11 -1 -48 18 -89 44 -4 3 221 615
235 637 5 10 149 -62 236 -118z m18720 85 c95 -48 217 -125 217 -137 0 -8
-360 -424 -421 -487 l-29 -30 -45 25 c-36 20 -44 28 -39 45 6 19 143 394 202
553 14 39 28 72 30 72 1 0 39 -19 85 -41z m-20113 -191 c40 -90 102 -227 138
-306 61 -137 63 -144 46 -157 -45 -34 -56 -31 -118 36 -33 35 -135 143 -228
240 l-168 177 48 41 c46 38 189 131 202 131 4 0 40 -73 80 -162z m18865 10
c222 -499 207 -460 188 -474 -46 -35 -54 -31 -143 64 -47 49 -149 158 -228
240 l-142 150 42 37 c41 35 195 135 209 135 3 0 37 -69 74 -152z m-17187 -148
c72 -83 128 -158 121 -163 -2 -2 -139 -79 -303 -172 l-299 -169 -23 30 c-13
16 -24 33 -24 37 0 11 443 517 452 517 4 0 38 -36 76 -80z m18878 -10 c43 -50
87 -104 97 -120 22 -35 61 -7 -307 -215 l-280 -158 -28 32 -29 32 63 72 c35
39 101 115 148 167 47 53 121 137 165 188 44 50 83 92 87 92 3 0 41 -41 84
-90z m-20776 -222 c126 -133 230 -244 230 -247 0 -3 -10 -18 -23 -34 l-22 -27
-280 142 c-154 79 -289 148 -300 155 -19 11 -17 15 34 90 49 70 121 163 128
163 1 0 106 -109 233 -242z m18871 -4 c123 -130 225 -239 226 -243 1 -3 -8
-18 -20 -33 l-23 -28 -279 143 c-154 78 -289 147 -299 153 -19 11 -18 13 4 50
41 67 142 194 155 194 7 0 113 -106 236 -236z m-16754 -86 c29 -39 121 -293
110 -304 -3 -3 -563 -97 -648 -109 l-46 -7 -16 46 -15 45 111 64 c62 35 171
97 242 137 72 41 155 88 185 107 63 37 64 37 77 21z m18911 -90 c39 -101 75
-209 69 -214 -3 -3 -663 -114 -680 -114 -7 0 -20 20 -29 45 l-17 45 52 30
c437 249 544 309 553 309 6 1 29 -45 52 -101z m-21214 -129 c271 -138 296
-153 291 -172 -4 -12 -9 -30 -11 -39 -6 -20 -22 -21 -114 -8 -36 5 -164 21
-285 35 -301 35 -279 28 -271 79 8 51 77 256 86 256 4 0 141 -68 304 -151z
m18690 92 c61 -32 193 -100 294 -151 140 -70 182 -95 178 -107 -3 -8 -9 -26
-12 -39 -3 -13 -12 -24 -20 -24 -18 0 -579 68 -621 75 -27 5 -33 11 -33 31 0
38 79 274 92 274 6 0 61 -26 122 -59z m-16235 -508 c1 -51 -1 -93 -3 -93 -2 0
-68 9 -147 19 -79 11 -227 29 -329 41 -231 26 -230 26 -230 56 0 13 3 24 8 24
4 1 160 27 347 58 l340 58 7 -35 c4 -20 7 -78 7 -128z m18865 126 c6 -33 9
-219 2 -219 -2 0 -68 9 -147 19 -79 11 -225 29 -324 40 -237 28 -235 27 -235
57 0 16 7 25 23 28 75 16 617 104 643 105 28 1 32 -3 38 -30z m-21629 -40 c39
-5 165 -21 280 -34 296 -35 287 -33 283 -58 -3 -20 -24 -25 -313 -74 -170 -28
-322 -52 -337 -52 l-28 -1 0 115 c0 132 -11 123 115 104z m18948 -9 c89 -12
231 -29 315 -40 83 -10 157 -22 163 -25 5 -4 9 -14 7 -23 -2 -13 -64 -26 -313
-68 -171 -28 -321 -53 -335 -55 l-25 -4 -3 118 c-2 102 -1 117 13 117 9 0 89
-9 178 -20z m-16787 -264 c60 -7 214 -27 342 -42 208 -26 232 -30 232 -47 0
-47 -61 -258 -86 -299 -9 -14 -633 305 -633 323 -1 22 19 79 28 79 4 0 56 -6
117 -14z m19149 -35 c281 -35 290 -37 293 -59 4 -27 -40 -183 -71 -252 l-22
-50 -245 126 c-135 68 -275 139 -312 157 -71 34 -76 41 -57 96 l11 32 57 -7
c31 -3 187 -23 346 -43z m-20709 -6 c7 -19 14 -39 14 -44 0 -8 -578 -341 -592
-341 -16 0 -118 293 -107 305 3 3 636 112 662 114 4 1 15 -15 23 -34z m18863
13 c25 -67 35 -56 -161 -168 -420 -238 -411 -233 -424 -215 -14 19 -94 258
-94 280 0 8 3 15 8 15 4 0 151 25 327 55 176 29 323 54 328 54 4 1 11 -9 16
-21z m-17213 -359 l315 -161 -21 -35 c-29 -50 -123 -173 -152 -201 l-25 -22
-239 250 c-131 138 -240 255 -242 260 -3 8 37 70 46 70 2 0 145 -72 318 -161z
m18870 0 l315 -161 -17 -27 c-38 -60 -104 -149 -140 -190 l-39 -43 -96 98
c-186 192 -389 409 -389 417 0 8 41 67 47 67 2 0 146 -72 319 -161z m-20396
116 c24 -25 24 -25 4 -50 -64 -81 -431 -494 -440 -494 -10 -1 -95 99 -155 183
-41 58 -53 44 136 150 72 40 195 110 275 155 79 44 147 81 150 81 4 0 17 -11
30 -25z m18870 0 l23 -24 -24 -31 c-73 -92 -426 -489 -435 -489 -12 -1 -114
119 -159 187 -17 25 -25 46 -19 52 5 5 122 72 259 150 138 78 264 150 280 160
40 25 48 24 75 -5z m1362 -487 l159 -167 -51 -40 c-55 -43 -219 -145 -225
-140 -2 2 -28 60 -58 129 -30 69 -92 206 -137 305 -45 99 -84 189 -86 200 -4
14 5 26 28 42 l33 22 89 -92 c49 -51 160 -167 248 -259z m-20042 317 c22 -14
40 -29 40 -34 0 -11 -228 -642 -235 -649 -11 -12 -268 148 -288 179 -8 13 25
56 169 219 98 112 199 227 224 256 25 30 46 54 48 54 1 0 20 -11 42 -25z m925
-57 c43 -46 152 -160 242 -255 l164 -171 -43 -35 c-68 -56 -221 -148 -230
-139 -11 11 -288 627 -288 641 0 8 52 40 66 41 6 0 46 -37 89 -82z m17945 57
c22 -14 40 -30 40 -35 0 -5 -27 -83 -60 -172 -34 -90 -81 -219 -107 -288 -25
-69 -52 -140 -59 -158 l-13 -33 -53 27 c-50 25 -191 115 -231 148 -18 13 -4
31 210 275 125 144 229 261 231 261 1 0 20 -11 42 -25z m-18183 -255 c41 -91
106 -233 144 -317 38 -84 69 -155 69 -157 0 -3 -35 -16 -77 -29 -92 -29 -247
-57 -315 -57 l-48 0 2 353 3 352 60 12 c33 6 66 10 74 10 7 -1 47 -76 88 -167z
m18864 15 c36 -83 99 -222 139 -310 39 -88 74 -165 77 -172 10 -25 -273 -93
-390 -93 l-47 0 2 353 3 352 60 12 c33 6 66 10 74 10 9 -1 43 -66 82 -152z
m-19270 135 c18 -10 19 -25 19 -356 0 -291 -2 -345 -14 -350 -37 -14 -316 48
-316 71 0 12 53 162 161 455 28 74 55 147 61 163 8 21 17 27 40 27 16 0 38 -5
49 -10z m18872 -2 c16 -12 17 -43 15 -358 l-3 -345 -60 3 c-59 2 -193 30 -247
51 l-28 10 31 83 c17 46 56 151 86 233 123 339 121 335 157 335 18 0 40 -6 49
-12z"/>
<path d="M1532 16119 c-177 -30 -374 -111 -552 -227 -114 -75 -319 -280 -392
-392 -98 -151 -193 -364 -217 -490 -6 -30 -13 -66 -16 -80 -4 -14 -9 -106 -12
-205 -8 -289 24 -452 136 -689 72 -153 159 -274 291 -406 367 -367 827 -498
1385 -395 56 11 160 48 268 96 311 140 590 420 730 734 46 104 83 209 91 260
30 181 36 237 36 345 0 108 -9 195 -36 349 -9 51 -58 185 -104 287 -96 207
-295 441 -492 578 -105 72 -254 147 -383 191 -190 65 -498 84 -733 44z"/>
<path d="M4905 15644 c-33 -8 -102 -35 -154 -60 -77 -38 -108 -60 -175 -127
-47 -48 -113 -130 -157 -197 -76 -114 -598 -902 -1131 -1705 l-279 -420 -152
-1 c-179 0 -263 -16 -417 -77 -233 -93 -431 -261 -578 -493 -88 -138 -157
-311 -192 -484 -20 -97 -20 -134 -20 -1623 0 -1279 2 -1536 14 -1603 8 -43 17
-101 21 -129 9 -67 57 -209 99 -292 35 -71 125 -197 193 -270 21 -23 182 -164
359 -315 675 -575 978 -833 988 -843 6 -6 97 -83 201 -171 175 -148 607 -516
665 -568 14 -12 66 -56 115 -98 50 -42 158 -133 240 -203 83 -70 180 -153 217
-184 l67 -56 21 -95 c11 -52 50 -214 85 -360 62 -258 127 -534 262 -1100 71
-302 147 -621 247 -1035 36 -148 68 -286 71 -305 3 -19 28 -123 55 -230 27
-107 59 -240 70 -295 64 -295 163 -491 334 -661 306 -304 703 -333 982 -72
143 135 240 338 274 575 11 83 6 264 -10 338 -13 63 -93 402 -176 745 -35 146
-93 391 -129 545 -37 154 -97 408 -135 565 -37 157 -93 391 -123 520 -31 129
-86 357 -121 505 -36 149 -68 286 -71 305 -3 19 -32 141 -64 270 -32 129 -73
296 -90 370 -55 236 -142 412 -285 581 -70 82 -423 462 -896 963 -217 230
-473 503 -569 605 -96 102 -240 256 -321 341 -81 85 -161 171 -178 191 l-32
37 0 1125 0 1125 53 6 c28 3 84 8 122 11 124 9 182 15 660 66 259 27 517 54
575 59 192 17 328 77 450 200 116 116 140 151 833 1196 282 424 631 949 776
1168 271 408 319 494 346 623 45 213 -15 433 -160 579 -121 122 -231 167 -405
167 -206 0 -378 -80 -526 -243 -23 -25 -310 -450 -639 -945 -328 -495 -688
-1036 -799 -1202 l-201 -303 -452 0 c-311 0 -453 3 -453 11 0 5 214 333 477
727 854 1285 865 1303 896 1381 78 200 73 383 -13 568 -69 148 -200 255 -365
298 -73 19 -219 18 -300 -1z"/>
<path d="M2186 7133 c-9 -144 -19 -350 -31 -708 -6 -176 -25 -590 -85 -1835
-28 -583 -33 -692 -45 -1025 -3 -77 -15 -336 -26 -575 -19 -376 -20 -459 -10
-615 14 -212 48 -422 85 -519 88 -232 244 -417 428 -510 202 -101 388 -100
588 5 246 128 431 436 479 797 12 86 76 1359 72 1427 0 11 10 256 24 545 14
289 39 809 55 1155 16 347 31 652 33 678 l4 48 -96 78 c-86 70 -185 146 -516
398 -55 42 -174 133 -264 202 -90 69 -175 135 -190 146 -15 11 -128 101 -251
199 -124 98 -230 183 -236 188 -9 6 -13 -16 -18 -79z"/>
</g>
</svg>
